<svg xmlns="http://www.w3.org/2000/svg" width="1200" height="520" viewBox="0 0 1200 520" role="img" aria-labelledby="title desc">
  <title id="title">Robot Companies Short Visual</title>
  <desc id="desc">A compact visual strip representing major robotics and AI companies</desc>
  <defs>
    <linearGradient id="bg" x1="0" y1="0" x2="1" y2="1">
      <stop offset="0%" stop-color="#0f172a"/>
      <stop offset="100%" stop-color="#1e3a8a"/>
    </linearGradient>
  </defs>

  <rect width="1200" height="520" rx="28" fill="url(#bg)"/>

  <text x="70" y="82" font-family="Arial, sans-serif" font-size="38" font-weight="700" fill="#f8fafc">Humanoid Robot Kisa Gorsel Vitrini</text>
  <text x="70" y="120" font-family="Arial, sans-serif" font-size="22" fill="#cbd5e1">Unitree • Tesla • Figure AI • Boston Dynamics • OpenAI • Fauna • Skild • RIVR • Sunday AI</text>

  <g transform="translate(72,170)">
    <rect width="230" height="280" rx="18" fill="#111827" stroke="#334155"/>
    <circle cx="115" cy="70" r="34" fill="#e2e8f0"/>
    <rect x="82" y="112" width="66" height="92" rx="16" fill="#cbd5e1"/>
    <rect x="58" y="122" width="20" height="72" rx="8" fill="#94a3b8"/>
    <rect x="152" y="122" width="20" height="72" rx="8" fill="#94a3b8"/>
    <rect x="90" y="206" width="18" height="62" rx="8" fill="#94a3b8"/>
    <rect x="122" y="206" width="18" height="62" rx="8" fill="#94a3b8"/>
    <text x="115" y="258" text-anchor="middle" font-family="Arial, sans-serif" font-size="18" fill="#f8fafc">UNITREE</text>
  </g>

  <g transform="translate(342,170)">
    <rect width="230" height="280" rx="18" fill="#1f2937" stroke="#374151"/>
    <circle cx="115" cy="70" r="34" fill="#f1f5f9"/>
    <rect x="82" y="112" width="66" height="92" rx="16" fill="#e2e8f0"/>
    <rect x="58" y="122" width="20" height="72" rx="8" fill="#cbd5e1"/>
    <rect x="152" y="122" width="20" height="72" rx="8" fill="#cbd5e1"/>
    <rect x="90" y="206" width="18" height="62" rx="8" fill="#cbd5e1"/>
    <rect x="122" y="206" width="18" height="62" rx="8" fill="#cbd5e1"/>
    <text x="115" y="258" text-anchor="middle" font-family="Arial, sans-serif" font-size="18" fill="#ef4444">TESLA</text>
  </g>

  <g transform="translate(612,170)">
    <rect width="230" height="280" rx="18" fill="#0b3b2e" stroke="#166534"/>
    <circle cx="115" cy="70" r="34" fill="#dcfce7"/>
    <rect x="82" y="112" width="66" height="92" rx="16" fill="#bbf7d0"/>
    <rect x="58" y="122" width="20" height="72" rx="8" fill="#86efac"/>
    <rect x="152" y="122" width="20" height="72" rx="8" fill="#86efac"/>
    <rect x="90" y="206" width="18" height="62" rx="8" fill="#86efac"/>
    <rect x="122" y="206" width="18" height="62" rx="8" fill="#86efac"/>
    <text x="115" y="258" text-anchor="middle" font-family="Arial, sans-serif" font-size="18" fill="#ecfdf5">FIGURE AI</text>
  </g>

  <g transform="translate(882,170)">
    <rect width="230" height="280" rx="18" fill="#172554" stroke="#1d4ed8"/>
    <circle cx="115" cy="70" r="34" fill="#dbeafe"/>
    <rect x="82" y="112" width="66" height="92" rx="16" fill="#bfdbfe"/>
    <rect x="58" y="122" width="20" height="72" rx="8" fill="#93c5fd"/>
    <rect x="152" y="122" width="20" height="72" rx="8" fill="#93c5fd"/>
    <rect x="90" y="206" width="18" height="62" rx="8" fill="#93c5fd"/>
    <rect x="122" y="206" width="18" height="62" rx="8" fill="#93c5fd"/>
    <text x="115" y="258" text-anchor="middle" font-family="Arial, sans-serif" font-size="16" fill="#eff6ff">ECOSYSTEM</text>
  </g>
</svg>
