<svg xmlns="http://www.w3.org/2000/svg" width="780" height="860" viewBox="0 0 780 860" role="img" aria-labelledby="title desc">
  <title id="title">XMAQUINA humanoid visual</title>
  <desc id="desc">Black humanoid robot with glowing green mark on the face display</desc>
  <defs>
    <linearGradient id="shell" x1="0.1" y1="0" x2="0.9" y2="1">
      <stop offset="0%" stop-color="#6b7280"/>
      <stop offset="0.25" stop-color="#2b313d"/>
      <stop offset="0.65" stop-color="#111827"/>
      <stop offset="100%" stop-color="#0a0f18"/>
    </linearGradient>
    <linearGradient id="gloss" x1="0" y1="0" x2="1" y2="1">
      <stop offset="0%" stop-color="#ffffff" stop-opacity="0.5"/>
      <stop offset="100%" stop-color="#ffffff" stop-opacity="0"/>
    </linearGradient>
    <radialGradient id="faceGlow" cx="50%" cy="45%" r="48%">
      <stop offset="0%" stop-color="#22c55e" stop-opacity="0.9"/>
      <stop offset="45%" stop-color="#16a34a" stop-opacity="0.28"/>
      <stop offset="100%" stop-color="#16a34a" stop-opacity="0"/>
    </radialGradient>
    <linearGradient id="neckMetal" x1="0" y1="0" x2="1" y2="1">
      <stop offset="0%" stop-color="#9ca3af"/>
      <stop offset="100%" stop-color="#374151"/>
    </linearGradient>
  </defs>

  <rect width="780" height="860" fill="#ffffff"/>

  <g transform="translate(390 150)">
    <path d="M-92 -106 C-42 -138 42 -138 92 -106 C118 -88 132 -56 132 -16 L132 98 C132 154 88 194 0 194 C-88 194 -132 154 -132 98 L-132 -16 C-132 -56 -118 -88 -92 -106 Z" fill="#0f172a"/>
    <path d="M-84 -94 C-44 -118 44 -118 84 -94 C106 -78 116 -50 116 -14 L116 90 C116 140 76 176 0 176 C-76 176 -116 140 -116 90 L-116 -14 C-116 -50 -106 -78 -84 -94 Z" fill="url(#shell)"/>
    <path d="M-48 -80 C-6 -110 34 -90 52 -42 C66 -6 40 2 12 -26 C-8 -46 -32 -34 -48 -8 C-62 14 -74 -4 -70 -32 C-66 -52 -58 -68 -48 -80 Z" fill="url(#gloss)" opacity="0.8"/>
    <ellipse cx="0" cy="28" rx="88" ry="102" fill="url(#faceGlow)"/>
    <g transform="translate(0 22) scale(1.15)">
      <path d="M-34 -12 L-10 -38 L-10 -4 L14 -32 L8 -2 L34 10 L8 12 L12 38 L-8 18 L-30 30 L-18 8 L-46 4 Z" fill="#2efc32"/>
    </g>
  </g>

  <g>
    <rect x="332" y="304" width="116" height="76" rx="18" fill="#111827"/>
    <path d="M344 316 L436 316 L450 374 L330 374 Z" fill="#1f2937"/>
    <path d="M326 372 L454 372 L474 420 L306 420 Z" fill="#2b313d"/>
    <circle cx="390" cy="388" r="46" fill="none" stroke="#6b7280" stroke-width="8" opacity="0.55"/>
  </g>

  <g transform="translate(0 8)">
    <path d="M240 474 C250 416 308 382 390 382 C472 382 530 416 540 474 L564 646 C520 710 260 710 216 646 Z" fill="url(#shell)"/>
    <path d="M272 476 C316 446 464 446 508 476 L524 612 C488 648 292 648 256 612 Z" fill="#2a313d"/>
    <path d="M350 452 L314 492 L316 626" fill="none" stroke="#5b6472" stroke-width="4" opacity="0.75"/>
    <path d="M430 452 L466 492 L464 626" fill="none" stroke="#5b6472" stroke-width="4" opacity="0.75"/>
    <rect x="372" y="524" width="36" height="28" rx="4" fill="#374151" stroke="#9ca3af" stroke-width="2"/>
    <text x="390" y="543" text-anchor="middle" font-family="Arial, sans-serif" font-size="13" fill="#d1d5db">X</text>
  </g>

  <g>
    <circle cx="186" cy="488" r="70" fill="#111827"/>
    <circle cx="594" cy="488" r="70" fill="#111827"/>
    <circle cx="186" cy="488" r="58" fill="url(#shell)"/>
    <circle cx="594" cy="488" r="58" fill="url(#shell)"/>
    <rect x="110" y="542" width="94" height="202" rx="34" fill="url(#shell)"/>
    <rect x="576" y="542" width="94" height="202" rx="34" fill="url(#shell)"/>
    <rect x="122" y="530" width="70" height="24" rx="10" fill="#0f172a"/>
    <rect x="588" y="530" width="70" height="24" rx="10" fill="#0f172a"/>
  </g>

  <g>
    <path d="M286 408 L236 442" fill="none" stroke="url(#neckMetal)" stroke-width="10" stroke-linecap="round"/>
    <path d="M494 408 L544 442" fill="none" stroke="url(#neckMetal)" stroke-width="10" stroke-linecap="round"/>
  </g>
</svg>
